<svg height="512pt" viewBox="0 0 512.0002 512" width="512pt" xmlns="http://www.w3.org/2000/svg"><path d="m439.085938 427.5h-30l-27.226563 38.5 92.640625 38.5h30zm0 0" fill="#ffc43b"/><path d="m72.914062 427.5-65.414062 77h467l-65.414062-77zm0 0" fill="#ffd87c"/><path d="m256 7.5v458l137.492188-161.839844c26.511718-31.351562 42.507812-71.886718 42.507812-116.160156 0-99.410156-80.589844-180-180-180zm0 0" fill="#ff1b10"/><path d="m406 187.5c0-99.410156-67.15625-180-150-180-99.410156 0-180 80.589844-180 180 0 44.273438 15.996094 84.808594 42.507812 116.160156l137.492188 161.839844 114.578125-161.839844c22.09375-31.351562 35.421875-71.886718 35.421875-116.160156zm0 0" fill="#ff451b"/><path d="m256 307.5c-66.167969 0-120-53.832031-120-120s53.832031-120 120-120 120 53.832031 120 120-53.832031 120-120 120zm0 0" fill="#fff"/><path d="m256 97.5v180c49.625 0 90-40.375 90-90s-40.375-90-90-90zm0 0" fill="#5aecff"/><path d="m316 187.5c0-49.625-26.914062-90-60-90-49.625 0-90 40.375-90 90s40.375 90 90 90c33.085938 0 60-40.375 60-90zm0 0" fill="#adf5ff"/><path d="m510.214844 499.644531-65.414063-77c-1.425781-1.675781-3.515625-2.644531-5.714843-2.644531h-134.589844l94.71875-111.496094c28.558594-33.765625 44.285156-76.738281 44.285156-121.003906 0-103.386719-84.113281-187.5-187.5-187.5s-187.5 84.113281-187.5 187.5c0 44.265625 15.726562 87.238281 44.292969 121.015625l94.710937 111.484375h-134.589844c-2.199218 0-4.289062.96875-5.714843 2.644531l-65.414063 77c-1.894531 2.226563-2.320312 5.351563-1.09375 8.003907 1.230469 2.652343 3.886719 4.351562 6.808594 4.351562h497c2.921875 0 5.582031-1.699219 6.808594-4.351562 1.226562-2.652344.800781-5.777344-1.09375-8.003907zm-426.714844-312.144531c0-95.117188 77.382812-172.5 172.5-172.5s172.5 77.382812 172.5 172.5c0 40.722656-14.464844 80.253906-40.726562 111.304688l-131.773438 155.113281-131.765625-155.101563c-26.265625-31.0625-40.734375-70.59375-40.734375-111.316406zm-59.785156 309.5 52.671875-62h143.863281l30.035156 35.355469c1.425782 1.675781 3.515625 2.644531 5.714844 2.644531 2.203125 0 4.292969-.96875 5.714844-2.644531l30.039062-35.355469h143.859375l52.675781 62zm0 0"/><path d="m383.5 187.5c0-70.304688-57.195312-127.5-127.5-127.5s-127.5 57.195312-127.5 127.5 57.195312 127.5 127.5 127.5 127.5-57.195312 127.5-127.5zm-240 0c0-62.03125 50.46875-112.5 112.5-112.5s112.5 50.46875 112.5 112.5-50.46875 112.5-112.5 112.5-112.5-50.46875-112.5-112.5zm0 0"/><path d="m353.5 187.5c0-53.761719-43.738281-97.5-97.5-97.5-20.371094 0-39.898438 6.246094-56.472656 18.058594-3.375 2.40625-4.160156 7.089844-1.753906 10.460937 2.402343 3.375 7.082031 4.160157 10.460937 1.753907 14.019531-9.992188 30.535156-15.273438 47.765625-15.273438 45.488281 0 82.5 37.007812 82.5 82.5s-37.011719 82.5-82.5 82.5-82.5-37.007812-82.5-82.5c0-17.230469 5.28125-33.75 15.273438-47.765625 2.40625-3.375 1.621093-8.058594-1.753907-10.460937-3.375-2.40625-8.054687-1.621094-10.460937 1.753906-11.8125 16.574218-18.058594 36.101562-18.058594 56.472656 0 53.761719 43.738281 97.5 97.5 97.5s97.5-43.738281 97.5-97.5zm0 0"/></svg>