<svg height="512pt" viewBox="0 -7 512 512" width="512pt" xmlns="http://www.w3.org/2000/svg"><path d="m7.5 172.5h60v120h-60zm0 0" fill="#2a51ff"/><path d="m504.5 197.5-30-14.515625-30 49.515625 30 49.515625 30-14.515625zm0 0" fill="#5aecff"/><path d="m442.5 167.5h-15v130h15l32-15.484375v-99.03125zm0 0" fill="#adf5ff"/><path d="m414.980469 29.230469v406.539062c-8.851563-13.179687-18.902344-25.5-30-36.78125l-90-166.488281 90-166.488281c11.097656-11.28125 21.148437-23.601563 30-36.78125zm0 0" fill="#adf5ff"/><path d="m427.5 7.5c-8.285156 0-15 6.714844-15 15v420c0 8.285156 6.714844 15 15 15s15-6.714844 15-15v-420c0-8.285156-6.714844-15-15-15zm0 0" fill="#2a51ff"/><path d="m384.980469 66.011719v332.976562c-46.378907-47.21875-110.980469-76.488281-182.480469-76.488281l-60-90 60-90c71.5 0 136.101562-29.269531 182.480469-76.488281zm0 0" fill="#d6faff"/><path d="m202.5 459.5v-46.5l-30-150.5-90 60 37.738281 137.890625c3.992188 16.007813 20.761719 29.109375 37.261719 29.109375h45c8.28125 0 15-6.71875 15-15s-6.71875-15-15-15zm0 0" fill="#d6faff"/><path d="m172.5 262.5v120.5c0 16.5 13.5 30 30 30v-150.5zm0 0" fill="#5aecff"/><path d="m82.5 142.5 30 90-30 90h-15c-16.5 0-30-13.5-30-30v-120c0-16.5 13.5-30 30-30zm0 0" fill="#199aff"/><path d="m202.5 142.5v180h-30l-45-90 45-90zm0 0" fill="#2a51ff"/><path d="m82.5 142.5h90v180h-90zm0 0" fill="#2275ff"/><path d="m507.765625 190.75-57.765625-27.953125v-140.296875c0-12.40625-10.09375-22.5-22.5-22.5s-22.5 10.09375-22.5 22.5v7.964844c-46.546875 65.5-122.0625 104.535156-202.5 104.535156h-135c-18.109375 0-33.261719 12.902344-36.746094 30h-23.253906c-4.140625 0-7.5 3.359375-7.5 7.5v120c0 4.140625 3.359375 7.5 7.5 7.5h23.253906c3.484375 17.097656 18.636719 30 36.746094 30h9.277344l36.210937 132.292969c4.898438 19.46875 24.433594 34.707031 44.511719 34.707031h45c12.40625 0 22.5-10.09375 22.5-22.5 0-9.777344-6.269531-18.121094-15-21.214844v-123.171875c77.613281 2.34375 149.902344 40.960938 195 104.421875v7.964844c0 12.40625 10.09375 22.5 22.5 22.5s22.5-10.09375 22.5-22.5v-140.296875l57.765625-27.953125c2.589844-1.25 4.234375-3.875 4.234375-6.75v-70c0-2.875-1.644531-5.5-4.234375-6.75zm-477.765625 34.25h-15v-15h15zm-15 15h15v15h-15zm15-60v15h-15v-15zm-15 90h15v15h-15zm30 22.5v-120c0-12.40625 10.09375-22.5 22.5-22.5h7.5v22.5c0 4.140625 3.359375 7.5 7.5 7.5s7.5-3.359375 7.5-7.5v-22.5h105v165h-105v-112.5c0-4.140625-3.359375-7.5-7.5-7.5s-7.5 3.359375-7.5 7.5v112.5h-7.5c-12.40625 0-22.5-10.09375-22.5-22.5zm150 111.710938c-8.730469-3.097657-15-11.433594-15-21.210938v-53h15zm7.5 77.789062h-45c-13.085938 0-26.8125-10.726562-29.980469-23.421875-.011719-.054687-.027343-.109375-.042969-.167969l-35.148437-128.410156h72.671875v53c0 18.109375 12.902344 33.261719 30 36.746094v39.753906c0 4.140625 3.359375 7.5 7.5 7.5 4.136719 0 7.5 3.363281 7.5 7.5s-3.363281 7.5-7.5 7.5zm7.5-166.890625v-165.21875c75.777344-2.160156 146.804688-36.925781 195-94.847656v354.914062c-48.195312-57.921875-119.222656-92.6875-195-94.847656zm225 127.390625c0 4.136719-3.363281 7.5-7.5 7.5s-7.5-3.363281-7.5-7.5v-420c0-4.136719 3.363281-7.5 7.5-7.5s7.5 3.363281 7.5 7.5zm62-179.703125-47 22.742187v-106.078124l47 22.742187zm0 0"/></svg>