<?xml version="1.0" encoding="utf-8"?>
<!-- Generator: Adobe Illustrator 17.1.0, SVG Export Plug-In . SVG Version: 6.00 Build 0)  -->
<!DOCTYPE svg PUBLIC "-//W3C//DTD SVG 1.1//EN" "http://www.w3.org/Graphics/SVG/1.1/DTD/svg11.dtd">
<svg version="1.1" id="Layer_1" xmlns="http://www.w3.org/2000/svg" xmlns:xlink="http://www.w3.org/1999/xlink" x="0px" y="0px"
	 viewBox="0 0 28 33" enable-background="new 0 0 28 33" xml:space="preserve">
<g>
	<polygon fill="#FFFFFF" points="10.2,23 28,0.1 28,4.2 12.1,25 	"/>
	<path fill="#FFFFFF" d="M14,26L28,8.4v4.2L16.4,27c-0.3,0.4-0.8,0.4-1.2,0.1C14.9,26.8,14.5,26.4,14,26z"/>
	<path fill="#FFFFFF" d="M20.3,26.7l7.7-10v4.4l-3.8,5C24.2,26.1,22.7,25.5,20.3,26.7z"/>
	<path fill="#FFFFFF" d="M-0.1,26.8c0,0,5.6-2.9,10.6,0.7S18.2,30,20.9,29c2.7-1,7.1-2.9,7.1-2.9v3l-7.4,3.1c0,0-4.3,1.7-8.3-0.3
		c0,0-4.7-2.8-5-2.8c-0.3,0-0.9-1.2-5-0.2c-1.4,0.4-2.5,1-2.5,1V26.8z"/>
</g>
</svg>
