<svg height="512pt" viewBox="0 0 512 512" width="512pt" xmlns="http://www.w3.org/2000/svg"><path d="m338.761719 475.648438-11.761719-41.148438-71-30-71 30-8.570312 30 170.570312 40h30c-16.5 0-33.710938-12.980469-38.238281-28.851562zm0 0" fill="#a3bbc0"/><path d="m347 504.5h-212c16.5 0 33.710938-12.980469 38.238281-28.851562l3.191407-11.148438h129.140624l3.191407 11.148438c4.527343 15.871093 21.738281 28.851562 38.238281 28.851562zm0 0" fill="#bddbe0"/><path d="m444.5 329.5v105h30c16.5 0 30-13.5 30-30v-30zm0 0" fill="#bddbe0"/><path d="m7.5 374.5v30c0 16.5 13.5 30 30 30h407c16.5 0 30-13.5 30-30v-75zm0 0" fill="#d6faff"/><path d="m474.5 374.5h30v-30l-90-75zm0 0" fill="#292c32"/><path d="m474.5 374.5h-467v-30l467-75zm0 0" fill="#41494e"/><path d="m474.5 74.5h-30l30 270h30v-240c0-16.5-13.5-30-30-30zm0 0" fill="#2a51ff"/><path d="m444.5 74.5h-407c-16.5 0-30 13.5-30 30v240h467v-240c0-16.5-13.5-30-30-30zm0 0" fill="#2275ff"/><path d="m444.488281 7.503906-60 86.261719 30-86.261719zm0 0" fill="#ffc43b"/><path d="m414.488281 7.503906v225h-158.488281l-188.5-225zm0 0" fill="#ffd87c"/><path d="m444.488281 7.503906v262l-120-11.257812 90-224.480469zm0 0" fill="#ffd87c"/><path d="m414.488281 33.765625v209.480469l-119.648437-104.742188zm0 0" fill="#ffebbe"/><path d="m444.488281 269.503906h-30l-119.648437-131zm0 0" fill="#ffa433"/><path d="m294.839844 138.503906-38.839844 34-38.851562-34.007812-149.648438 131c0 .007812 346.988281.007812 346.988281.007812v-26.257812zm0 0" fill="#ffc43b"/><path d="m217.148438 138.496094-149.648438 131v-261.992188zm0 0" fill="#ffebbe"/><path d="m474.5 67h-22.511719v-59.5c0-.015625 0-.035156 0-.050781-.003906-.207031-.015625-.410157-.03125-.613281-.003906-.046876-.007812-.09375-.011719-.136719-.019531-.207031-.054687-.410157-.09375-.613281-.007812-.039063-.011718-.082032-.019531-.125-.042969-.199219-.097656-.402344-.15625-.601563-.011719-.035156-.019531-.074219-.03125-.109375-.058593-.195312-.132812-.386719-.210937-.578125-.011719-.035156-.027344-.074219-.042969-.109375-.074219-.179688-.160156-.355469-.25-.527344-.023437-.046875-.046875-.089844-.070313-.136718-.085937-.15625-.179687-.304688-.277343-.457032-.035157-.054687-.070313-.117187-.109375-.171875-.089844-.132812-.191406-.261719-.289063-.390625-.054687-.066406-.109375-.136718-.164062-.203125-.03125-.039062-.058594-.078125-.089844-.117187-.074219-.082032-.148437-.152344-.222656-.230469-.0625-.0625-.125-.132813-.191407-.195313-.113281-.109374-.230468-.214843-.347656-.316406-.066406-.054687-.132812-.113281-.195312-.164062-.125-.101563-.253906-.195313-.382813-.285156-.070312-.050782-.140625-.097657-.210937-.144532-.128906-.085937-.261719-.164062-.394532-.238281-.082031-.046875-.164062-.09375-.25-.136719-.125-.066406-.25-.125-.378906-.183594-.097656-.046874-.199218-.089843-.296875-.128906-.121093-.046875-.242187-.089844-.367187-.132812-.109375-.039063-.222656-.074219-.335938-.105469-.121094-.035156-.238281-.0625-.355468-.09375-.121094-.027344-.238282-.050781-.359376-.074219-.125-.023437-.246093-.0390622-.371093-.0585935-.117188-.015625-.234375-.03125-.355469-.0390625-.132812-.0117188-.269531-.015625-.402344-.0195312-.078125-.0039063-.15625-.0117188-.234375-.0117188h-376.988281c-.078125 0-.152344.0078125-.226562.0117188-.136719.0039062-.269532.0078124-.40625.0195312-.121094.0078125-.242188.0273438-.363282.0429688-.117187.015625-.238281.0312502-.355468.0546872-.128907.023438-.253907.050782-.378907.078125-.113281.027344-.222656.054688-.332031.085938-.125.035156-.246094.074219-.367188.117187-.109374.035156-.21875.078125-.332031.121094-.109375.042969-.222656.089844-.332031.140625-.113281.054687-.226562.109375-.339844.167969-.101562.050781-.199218.105468-.296875.160156-.117187.066406-.230469.132812-.339843.207031-.09375.058594-.183594.121094-.273438.1875-.105469.074219-.214844.15625-.316406.238281-.09375.070313-.183594.148438-.269532.226563-.09375.082031-.183593.164063-.273437.25-.097656.09375-.1875.1875-.28125.285156-.050781.058594-.109375.109375-.160156.167969-.019531.027344-.039063.054688-.0625.082031-.089844.105469-.175781.21875-.261719.328125-.066406.089844-.132812.175782-.195312.265625-.074219.105469-.140626.21875-.210938.328125-.0625.101563-.125.199219-.183594.300782-.058594.105468-.109375.214843-.164062.324218-.054688.113282-.113282.222656-.160156.335938-.046876.105468-.085938.214844-.125.324218-.046876.121094-.09375.238282-.132813.359376-.035156.109374-.058594.21875-.089844.328124-.035156.125-.070312.253907-.097656.382813-.023437.105469-.039063.214844-.058594.320313-.019531.136718-.046875.273437-.058593.410156-.015626.101562-.019532.207031-.027344.3125-.007813.144531-.019532.289062-.019532.433594 0 .035156-.003906.066406-.003906.101562v59.5h-22.503906c-20.679688 0-37.5 16.820312-37.5 37.5v300c0 20.679688 16.820312 37.5 37.5 37.5h137.558594l-9.03125 31.59375c-3.621094 12.6875-17.832032 23.40625-31.027344 23.40625h-49c-4.144531 0-7.5 3.359375-7.5 7.5s3.355469 7.5 7.5 7.5h340c4.144531 0 7.5-3.359375 7.5-7.5s-3.355469-7.5-7.5-7.5h-49c-13.195312 0-27.40625-10.71875-31.03125-23.40625l-9.027344-31.59375h137.558594c20.679688 0 37.5-16.820312 37.5-37.5v-300c0-20.679688-16.820312-37.5-37.5-37.5zm-399.5-42.96875 130.765625 114.464844-130.765625 114.46875zm180.996094 138.5-168.542969-147.53125h337.085937zm-38.84375-14.066406 33.90625 29.679687c1.414062 1.238281 3.175781 1.855469 4.9375 1.855469 1.761718 0 3.523437-.617188 4.9375-1.855469l33.902344-29.675781 129.699218 113.53125h-337.085937zm89.070312-9.960938 130.765625-114.46875v228.933594zm-268.722656-56.503906h22.5v187.5c0 .261719.011719.488281.035156.71875 0 .019531.003906.042969.003906.066406.023438.230469.0625.460938.105469.691406.054688.277344.117188.507813.1875.734376.074219.25.15625.46875.25.6875.09375.230468.191407.425781.296875.625.011719.019531.019532.042968.03125.066406.097656.171875.203125.339844.3125.507812.023438.039063.050782.082032.078125.121094.097657.144531.207031.285156.316407.425781.042968.058594.089843.117188.136718.171875.03125.042969.0625.085938.097656.125.066407.074219.140626.140625.210938.214844.074219.078125.148438.15625.226562.230469.109376.105469.21875.207031.332032.304687.078125.066406.15625.128906.234375.191406.121093.09375.246093.1875.371093.273438.082032.058594.164063.109375.25.164062.125.082032.253907.164063.382813.234376.09375.054687.195313.101562.289063.148437.128906.0625.253906.125.378906.183594.121094.050781.246094.09375.367187.136719.113281.042968.222657.089843.335938.125.15625.050781.320312.085937.480469.125.085937.023437.167968.046874.253906.066406.195312.042968.402344.070312.605468.09375.050782.007812.101563.019531.152344.023437.230469.023438.46875.035157.707032.039063h.066406 376.992187c.53125 0 1.046875-.054688 1.542969-.160156.035156-.007813.066406-.015626.101562-.023438.214844-.046875.429688-.101562.636719-.171875.074219-.023437.140625-.050781.210938-.074219.167969-.058594.335937-.121094.496093-.191406.09375-.039062.183594-.089844.277344-.132812.136719-.066407.269532-.128907.398438-.203126.101562-.054687.199218-.117187.296875-.179687.117187-.074219.234375-.148437.34375-.226563.097656-.066406.191406-.140624.289062-.214843.109375-.085938.21875-.175781.324219-.269531.085938-.074219.171875-.148438.253906-.226563.113282-.109375.222656-.222656.332032-.339844.042968-.050781.09375-.09375.140624-.144531.023438-.027344.042969-.058594.0625-.085938.089844-.105468.175782-.214843.261719-.328124.066407-.085938.136719-.171876.195313-.261719.074218-.109375.144531-.21875.210937-.332031.0625-.097657.125-.195313.183594-.296876.058594-.109374.109375-.21875.164063-.328124.054687-.109376.113281-.21875.160156-.332032.046875-.109375.085937-.21875.125-.328125.046875-.117187.09375-.238281.132812-.359375.035156-.105468.0625-.214844.09375-.324218.03125-.128907.070313-.253907.097656-.382813.023438-.105469.035157-.214844.054688-.320313.023438-.140624.046875-.273437.0625-.414062.011719-.101562.015625-.207031.023438-.308594.011718-.144531.019531-.292968.023437-.4375 0-.03125.003906-.066406.003906-.101562v-187.496094h22.511719c12.40625 0 22.5 10.09375 22.5 22.5v232.5h-482v-232.5c0-12.40625 10.09375-22.5 22.5-22.5zm294.046875 395.714844c2.058594 7.203125 6.148437 13.824218 11.511719 19.285156h-174.117188c5.363282-5.460938 9.453125-12.082031 11.511719-19.285156l10.203125-35.714844h130.6875zm142.953125-50.714844h-437c-12.40625 0-22.5-10.09375-22.5-22.5v-22.5h22.5c4.144531 0 7.5-3.359375 7.5-7.5s-3.355469-7.5-7.5-7.5h-22.5v-15h482v15h-429.5c-4.144531 0-7.5 3.359375-7.5 7.5s3.355469 7.5 7.5 7.5h429.5v22.5c0 12.40625-10.09375 22.5-22.5 22.5zm0 0"/></svg>