<svg height="512pt" viewBox="-18 0 512 512" width="512pt" xmlns="http://www.w3.org/2000/svg"><path d="m468.875 474.390625v30.085937h-30.089844l-30.085937-60.175781zm0 0" fill="#bddbe0"/><path d="m438.785156 384.125v120.351562h-431.261718v-30.085937zm0 0" fill="#d6faff"/><path d="m326.957031 106.3125h81.742188v120.351562h-81.742188zm0 0" fill="#515151"/><path d="m67.699219 106.3125h80.234375v120.351562h-80.234375zm0 0" fill="#41494e"/><path d="m326.957031 7.523438-88.757812 219.140624h118.847656v-219.140624zm0 0" fill="#d6faff"/><path d="m117.84375 7.523438h209.113281v219.140624h-209.113281zm0 0" fill="#fff"/><path d="m438.785156 196.574219h-30.085937v180.53125l60.175781-60.175781v-90.265626c0-16.546874-13.539062-30.089843-30.089844-30.089843zm0 0" fill="#ff1b10"/><path d="m438.785156 226.664062v150.441407l-431.261718-60.175781v-90.265626c0-16.546874 13.539062-30.089843 30.085937-30.089843h110.324219l90.265625 90.265625 90.261719-90.265625h80.238281c16.546875 0 30.085937 13.542969 30.085937 30.089843zm0 0" fill="#ff451b"/><path d="m468.875 316.929688v157.460937h-30.089844l-40.117187-78.730469 40.117187-78.730468zm0 0" fill="#ff451b"/><path d="m7.523438 316.929688h431.261718v157.460937h-431.261718zm0 0" fill="#ff6523"/><path d="m408.699219 347.015625-40.121094 48.363281 40.121094 48.921875h30.085937v-97.285156zm0 0" fill="#a3bbc0"/><path d="m37.609375 347.015625v97.285156h90.265625l110.324219-15.042969 110.320312 15.042969h60.179688v-97.285156zm0 0" fill="#bddbe0"/><path d="m127.875 414.214844h220.644531v30.085937h-220.644531zm0 0" fill="#fff"/><path d="m298.375 196.574219h30.085938c0 49.859375-40.40625 90.265625-90.261719 90.265625zm0 0" fill="#728287"/><path d="m268.285156 196.574219h30.089844c0 49.859375-26.941406 90.265625-60.175781 90.265625-49.859375 0-90.265625-40.40625-90.265625-90.265625h60.175781l30.089844 20.058593zm0 0" fill="#8b9ea4"/><path d="m208.109375 196.574219h60.175781c0 16.621093-13.46875 30.089843-30.085937 30.089843-16.621094 0-30.089844-13.46875-30.089844-30.089843zm0 0" fill="#515151"/><path d="m438.785156 189.054688h-22.566406v-82.742188c0-4.15625-3.367188-7.523438-7.519531-7.523438h-44.132813v-91.265624c0-4.15625-3.367187-7.523438-7.519531-7.523438h-239.203125c-4.152344 0-7.519531 3.367188-7.519531 7.523438v91.265624h-42.625c-4.15625 0-7.523438 3.367188-7.523438 7.523438v82.742188h-22.566406c-20.738281 0-37.609375 16.871093-37.609375 37.609374v277.8125c0 4.15625 3.367188 7.523438 7.523438 7.523438h461.351562c4.152344 0 7.519531-3.367188 7.519531-7.523438v-277.8125c0-20.738281-16.871093-37.609374-37.609375-37.609374zm-37.609375-75.222657v75.222657h-36.609375v-75.222657zm-275.808593 75.222657v-30.089844h15.042968v7.523437c0 4.152344 3.367188 7.523438 7.523438 7.523438 4.152344 0 7.523437-3.371094 7.523437-7.523438v-7.523437h165.484375v7.523437c0 4.152344 3.367188 7.523438 7.519532 7.523438 4.15625 0 7.523437-3.371094 7.523437-7.523438v-7.523437h13.539063v30.089844zm75.976562 15.042968c3.496094 17.148438 18.691406 30.089844 36.855469 30.089844 18.160156 0 33.355469-12.941406 36.851562-30.089844h45.53125c-3.816406 42.109375-39.296875 75.21875-82.386719 75.21875-43.085937 0-78.570312-33.109375-82.382812-75.21875zm15.582031 0h42.542969c-3.105469 8.753906-11.464844 15.042969-21.269531 15.042969-9.808594 0-18.167969-6.289063-21.273438-15.042969zm-91.558593-189.054687h224.15625v128.878906h-13.539063v-7.523437c0-4.152344-3.367187-7.519532-7.523437-7.519532-4.152344 0-7.519532 3.367188-7.519532 7.519532v7.523437h-165.484375v-7.523437c0-4.152344-3.371093-7.519532-7.523437-7.519532-4.15625 0-7.523438 3.367188-7.523438 7.519532v7.523437h-15.042968zm-50.148438 98.789062h35.105469v75.222657h-35.105469zm-37.609375 90.265625h103.089844c3.851562 50.417969 46.109375 90.265625 97.5 90.265625 51.386719 0 93.644531-39.847656 97.5-90.265625h103.085937c12.445313 0 22.566406 10.121094 22.566406 22.566406v240.203126h-446.308593v-240.203126c0-12.445312 10.125-22.566406 22.566406-22.566406zm-22.566406 292.859375v-15.046875h446.308593v15.046875zm0 0"/><path d="m97.785156 324.449219h341c4.15625 0 7.523438-3.367188 7.523438-7.519531 0-4.15625-3.367188-7.523438-7.523438-7.523438h-341c-4.152344 0-7.519531 3.367188-7.519531 7.523438 0 4.152343 3.367187 7.519531 7.519531 7.519531zm0 0"/><path d="m37.609375 324.449219h30.089844c4.152343 0 7.519531-3.367188 7.519531-7.519531 0-4.15625-3.367188-7.523438-7.519531-7.523438h-30.089844c-4.152344 0-7.519531 3.367188-7.519531 7.523438 0 4.152343 3.367187 7.519531 7.519531 7.519531zm0 0"/><path d="m37.609375 451.824219h401.175781c4.15625 0 7.523438-3.367188 7.523438-7.523438v-97.285156c0-4.152344-3.367188-7.519531-7.523438-7.519531h-401.175781c-4.152344 0-7.519531 3.367187-7.519531 7.519531v97.285156c0 4.15625 3.367187 7.523438 7.519531 7.523438zm303.390625-15.042969h-205.601562v-15.046875h205.601562zm-295.867188-82.242188h386.128907v82.242188h-75.21875v-22.566406c0-4.15625-3.367188-7.523438-7.523438-7.523438h-220.644531c-4.15625 0-7.523438 3.367188-7.523438 7.523438v22.566406h-75.21875zm0 0"/><path d="m37.609375 174.011719c4.15625 0 7.523437-3.371094 7.523437-7.523438v-30.089843c0-4.152344-3.367187-7.519532-7.523437-7.519532-4.152344 0-7.519531 3.367188-7.519531 7.519532v30.089843c0 4.152344 3.367187 7.523438 7.519531 7.523438zm0 0"/><path d="m438.785156 174.011719c4.15625 0 7.523438-3.371094 7.523438-7.523438v-30.089843c0-4.152344-3.367188-7.519532-7.523438-7.519532-4.152344 0-7.523437 3.367188-7.523437 7.519532v30.089843c0 4.152344 3.371093 7.523438 7.523437 7.523438zm0 0"/></svg>